<mxfile host="65bd71144e">
    <diagram id="fECts557okDQ3qRtLXVx" name="Страница 1">
        <mxGraphModel dx="812" dy="558" grid="1" gridSize="10" guides="1" tooltips="1" connect="1" arrows="1" fold="1" page="1" pageScale="1" pageWidth="827" pageHeight="1169" math="0" shadow="0">
            <root>
                <mxCell id="0"/>
                <mxCell id="1" parent="0"/>
                <mxCell id="2" value="Пользователь взаимодействует с веб-страницей" style="rounded=0;whiteSpace=wrap;fillColor=#1ba1e2;fontColor=#ffffff;strokeColor=#006EAF;" parent="1" vertex="1">
                    <mxGeometry x="353" y="120" width="236" height="60" as="geometry"/>
                </mxCell>
                <mxCell id="3" value="" style="endArrow=classic;endSize=8;startSize=8;jumpSize=7;strokeWidth=2;entryX=0.5;entryY=0;entryDx=0;entryDy=0;strokeColor=#FFFFFF;fillColor=#dae8fc;" parent="1" edge="1">
                    <mxGeometry width="50" height="50" relative="1" as="geometry">
                        <mxPoint x="471" y="180" as="sourcePoint"/>
                        <mxPoint x="470.93000000000006" y="220" as="targetPoint"/>
                    </mxGeometry>
                </mxCell>
                <mxCell id="5" value="Обновление DOM страницы" style="rounded=0;whiteSpace=wrap;fillColor=#1ba1e2;fontColor=#ffffff;strokeColor=#006EAF;" vertex="1" parent="1">
                    <mxGeometry x="353" y="220" width="236" height="60" as="geometry"/>
                </mxCell>
                <mxCell id="6" value="Пользователь может вручную изменять параметры URL, которые могут привести к другим изменениям на странице" style="rounded=0;whiteSpace=wrap;fillColor=#1ba1e2;fontColor=#ffffff;strokeColor=#006EAF;" vertex="1" parent="1">
                    <mxGeometry x="353" y="320" width="236" height="60" as="geometry"/>
                </mxCell>
                <mxCell id="9" value="Страница может динамически создать новый DOM-элемент скрипта.Этот скрипт добавляется в DOM вместе с новым содержимым страницы. Новый скрипт может быть выполнен автоматически при загрузке страницы." style="rounded=0;whiteSpace=wrap;fillColor=#1ba1e2;fontColor=#ffffff;strokeColor=#006EAF;" vertex="1" parent="1">
                    <mxGeometry x="353" y="420" width="236" height="90" as="geometry"/>
                </mxCell>
                <mxCell id="11" value="Если злоумышленник может контролировать параметры URL, он может внедрить вредоносный скрипт и использовать ссылку для отправки жертве. Вредоносный скрипт может выполняться при загрузке страницы жертвы и получить доступ к важным данным, таким как cookies пользователя." style="rounded=0;whiteSpace=wrap;fillColor=#1ba1e2;fontColor=#ffffff;strokeColor=#006EAF;" vertex="1" parent="1">
                    <mxGeometry x="353" y="550" width="236" height="140" as="geometry"/>
                </mxCell>
                <mxCell id="12" value="" style="endArrow=classic;endSize=8;startSize=8;jumpSize=7;strokeWidth=2;entryX=0.5;entryY=0;entryDx=0;entryDy=0;strokeColor=#FFFFFF;fillColor=#dae8fc;" edge="1" parent="1">
                    <mxGeometry width="50" height="50" relative="1" as="geometry">
                        <mxPoint x="470.73" y="280" as="sourcePoint"/>
                        <mxPoint x="470.6600000000001" y="320" as="targetPoint"/>
                    </mxGeometry>
                </mxCell>
                <mxCell id="13" value="" style="endArrow=classic;endSize=8;startSize=8;jumpSize=7;strokeWidth=2;entryX=0.5;entryY=0;entryDx=0;entryDy=0;strokeColor=#FFFFFF;fillColor=#dae8fc;" edge="1" parent="1">
                    <mxGeometry width="50" height="50" relative="1" as="geometry">
                        <mxPoint x="470.73" y="380" as="sourcePoint"/>
                        <mxPoint x="470.6600000000001" y="420" as="targetPoint"/>
                    </mxGeometry>
                </mxCell>
                <mxCell id="14" value="" style="endArrow=classic;endSize=8;startSize=8;jumpSize=7;strokeWidth=2;entryX=0.5;entryY=0;entryDx=0;entryDy=0;strokeColor=#FFFFFF;fillColor=#dae8fc;" edge="1" parent="1">
                    <mxGeometry width="50" height="50" relative="1" as="geometry">
                        <mxPoint x="470.73" y="510" as="sourcePoint"/>
                        <mxPoint x="470.6600000000001" y="550" as="targetPoint"/>
                    </mxGeometry>
                </mxCell>
            </root>
        </mxGraphModel>
    </diagram>
</mxfile>